# xmcd CD database file
#
# Track frame offsets:
#	150
#	15127
#	28702
#	40155
#	57110
#	69917
#	82072
#	95637
#	109562
#	122125
#	134992
#	150130
#	162630
#	172992
#	190317
#
# Disc length: 2699 seconds
#
# Revision: 2
# Processed by: cddbd v1.4b41PL1 Copyright (c) Steve Scherf et al.
# Submitted via: Feurio! 1.50.2ß - http://www.feurio.com
#
DISCID=be0a890f
DTITLE=Stefanie Hertel - Heimatlieder zum Verlieben
DYEAR=1900
DGENRE=
TTITLE0=Zillertaler Hochzeitsmarsch
TTITLE1=Das Schwalbenlied
TTITLE2=Wer Recht in Freuden wandern will
TTITLE3=Das Kufsteiner Lied
TTITLE4=Hoch auf dem gelben Wagen
TTITLE5=Jetzt kommen die lustigen Tage
TTITLE6=Das Rennsteiglied
TTITLE7=Aus Böhmen kommt die Musik
TTITLE8=Bergwagabunden
TTITLE9=Schneewalzer
TTITLE10=Lieder,die von Herzen kommen
TTITLE11=Der Vugelbeerbaum
TTITLE12=Es kann nicht immer nur die Sonne scheinen
TTITLE13=Du bist mein kleines  Geheimniss
TTITLE14=Mein Märchenprinz sieht aus wie du
EXTD=
EXTT0=
EXTT1=
EXTT2=
EXTT3=
EXTT4=
EXTT5=
EXTT6=
EXTT7=
EXTT8=
EXTT9=
EXTT10=
EXTT11=
EXTT12=
EXTT13=
EXTT14=
PLAYORDER=
